PathFileType	4	(X/Y/Z)	/Users/itak/Documents/Research/Walk-IL/dataset/trc/00023_00004.trc
DataRate	CameraRate	NumFrames	NumMarkers	Units	OrigDataRate	OrigDataStartFrame	OrigNumFrames
100.000000	100.000000	4	53	mm	100.000000	633	844
Frame#	Time	RPSI			LPSI			L3			STRN			T10			C7			CLAV			RBAK			LBAK			LSHO			LUPA			LAEL			LAOL			LWTS			LWPS			LFRA			LIFD			LHPS			LHTS			RSHO			RUPA			RAEL			RAOL			RWTS			RWPS			RFRA			RIFD			RHTS			RHPS			RBHD			LFHD			RFHD			LBHD			LHIP			RHIP			RASI			LASI			LKNE			LTHI			LANK			LTIP			LTOE			LMT1			LMT5			LHEE			RKNE			RTHI			RANK			RTIP			RTOE			RMT1			RMT5			RHEE			
		X1	Y1	Z1	X2	Y2	Z2	X3	Y3	Z3	X4	Y4	Z4	X5	Y5	Z5	X6	Y6	Z6	X7	Y7	Z7	X8	Y8	Z8	X9	Y9	Z9	X10	Y10	Z10	X11	Y11	Z11	X12	Y12	Z12	X13	Y13	Z13	X14	Y14	Z14	X15	Y15	Z15	X16	Y16	Z16	X17	Y17	Z17	X18	Y18	Z18	X19	Y19	Z19	X20	Y20	Z20	X21	Y21	Z21	X22	Y22	Z22	X23	Y23	Z23	X24	Y24	Z24	X25	Y25	Z25	X26	Y26	Z26	X27	Y27	Z27	X28	Y28	Z28	X29	Y29	Z29	X30	Y30	Z30	X31	Y31	Z31	X32	Y32	Z32	X33	Y33	Z33	X34	Y34	Z34	X35	Y35	Z35	X36	Y36	Z36	X37	Y37	Z37	X38	Y38	Z38	X39	Y39	Z39	X40	Y40	Z40	X41	Y41	Z41	X42	Y42	Z42	X43	Y43	Z43	X44	Y44	Z44	X45	Y45	Z45	X46	Y46	Z46	X47	Y47	Z47	X48	Y48	Z48	X49	Y49	Z49	X50	Y50	Z50	X51	Y51	Z51	X52	Y52	Z52	X53	Y53	Z53	

634	6.33	-626.439697265625	1059.257080078125	187.3810577392578	-465.4790649414062	1042.526611328125	181.2023620605469	-534.7157592773438	1115.043212890625	173.1405334472656	-519.7324829101562	1310.633422851562	394.0528564453125	-528.5833129882812	1259.69677734375	145.4144134521484	-497.564453125	1527.237060546875	188.9662017822266	-506.5184631347656	1433.785766601562	345.8088989257812	-589.1510620117188	1396.969482421875	137.2910308837891	-407.5586547851562	1476.103637695312	167.0999603271484	-330.2203369140625	1476.7509765625	262.4413757324219	-264.3482971191406	1349.60205078125	222.8883972167969	-254.9730834960938	1132.578125	208.145751953125	-350.0173034667969	1130.109130859375	161.9001312255859	-313.8931274414062	884.8460693359375	302.10595703125	-290.0439453125	866.0737915039062	218.2614593505859	-256.0574645996094	1016.517944335938	217.5658874511719	-344.1097106933594	700.315673828125	334.0638122558594	-293.7033386230469	776.3963012695312	251.9544067382812	-306.683837890625	788.3038940429688	321.0147094726562	-666.3861694335938	1526.563232421875	267.2272338867188	-746.332763671875	1470.339721679688	249.9317169189453	-810.0601806640625	1218.857543945312	183.0816802978516	-720.2173461914062	1172.489013671875	185.93701171875	-846.9765625	935.6409301757812	248.0408477783203	-905.3402709960938	952.6724853515625	179.4113159179688	-840.9733276367188	1149.156372070312	181.4895782470703	-873.8905639648438	750.5341186523438	213.5396118164062	-885.1640625	824.4881591796875	248.3299407958984	-928.326416015625	847.724609375	191.2490234375	-423.7140197753906	1699.688232421875	265.97802734375	-438.7059936523438	1657.537841796875	480.6493530273438	-356.3253173828125	1646.197021484375	426.4826049804688	-541.9114379882812	1712.97265625	348.8479919433594	-353.6609802246094	936.1128540039062	285.4830017089844	-728.6646728515625	957.9912109375	309.4963073730469	-651.7740478515625	993.57958984375	407.811279296875	-416.6216735839844	996.4102783203125	394.3330993652344	-470.1807250976562	515.073486328125	423.9075622558594	-413.3916625976562	637.0347900390625	370.1606140136719	-564.0843505859375	36.75621795654297	324.6688232421875	-501.9149780273438	270.3648071289062	348.5133056640625	-606.8936157226562	38.84789276123047	549.8347778320312	-625.9954223632812	46.92469787597656	492.924072265625	-530.4212036132812	40.6360969543457	445.7632751464844	-623.8409423828125	46.78296279907227	263.2977600097656	-752.1153564453125	522.1589965820312	398.5121154785156	-745.1015014648438	797.82421875	354.5732421875	-768.948486328125	224.9149627685547	-11.82563209533691	-764.0700073242188	421.0806274414062	315.4580993652344	-761.8555297851562	55.7126350402832	148.0573425292969	-721.776611328125	101.0073547363281	110.4875640869141	-813.2963256835938	116.4217758178711	81.225830078125	-715.7970581054688	259.1554565429688	-43.65344619750977	
635	6.34	-626.4954833984375	1059.544189453125	196.1833190917969	-465.6665344238281	1042.739135742188	187.3730621337891	-534.9056396484375	1115.44775390625	180.3331298828125	-516.7271118164062	1311.338623046875	400.8983459472656	-529.0565185546875	1260.086547851562	152.3187561035156	-497.5119934082031	1527.689331054688	195.2337341308594	-504.3167419433594	1434.369140625	352.2298889160156	-589.6702270507812	1397.318115234375	144.9299163818359	-407.7973022460938	1476.5791015625	172.1529388427734	-329.0857238769531	1477.388061523438	266.3764038085938	-263.6960144042969	1350.1796875	226.1006774902344	-254.4337005615234	1133.0224609375	211.9112701416016	-350.2465209960938	1130.319580078125	167.0417633056641	-311.7461853027344	886.336669921875	308.9806823730469	-289.4471740722656	866.7042846679688	224.9166564941406	-255.4467163085938	1017.116149902344	222.1681518554688	-341.044921875	702.2323608398438	343.7048034667969	-292.3714294433594	777.4107666015625	259.671630859375	-303.9795227050781	790.0552368164062	328.849609375	-665.2445678710938	1526.9873046875	275.7025756835938	-745.3917236328125	1470.90673828125	259.3244018554688	-809.938720703125	1219.734985351562	192.2937622070312	-720.0352783203125	1173.236572265625	194.1593780517578	-846.095458984375	936.5492553710938	257.822265625	-905.10546875	953.3246459960938	189.7135162353516	-840.8881225585938	1149.91455078125	190.9030609130859	-873.2967529296875	751.3333740234375	224.3805084228516	-884.452880859375	825.40087890625	259.0007934570312	-927.8948364257812	848.3588256835938	202.1817626953125	-422.3219604492188	1700.202514648438	272.4212036132812	-435.7820129394531	1657.328979492188	487.0590209960938	-353.7091674804688	1646.19091796875	432.2203979492188	-539.8870849609375	1713.143676757812	356.1741333007812	-352.9801330566406	936.1572875976562	289.5394287109375	-726.7318725585938	958.77490234375	320.3414611816406	-648.0032348632812	994.6517333984375	417.2639770507812	-413.3372497558594	996.766845703125	399.6365356445312	-468.8296203613281	514.2666015625	425.5243530273438	-412.2095031738281	636.649169921875	372.554443359375	-564.0961303710938	36.72955322265625	324.6459655761719	-501.4471130371094	270.1929626464844	349.0205078125	-606.92822265625	38.78811264038086	549.885009765625	-625.9690551757812	46.9240608215332	492.9193420410156	-530.309326171875	40.5982551574707	445.7489624023438	-623.7542724609375	46.94666290283203	263.3397521972656	-747.7160034179688	524.0352783203125	414.7435607910156	-742.5813598632812	799.0770874023438	367.3642883300781	-775.8023071289062	218.9079895019531	11.4834041595459	-762.1963500976562	422.3375244140625	333.6671447753906	-770.7650146484375	55.55373764038086	177.1075286865234	-730.0416870117188	98.08845520019531	137.350830078125	-821.65234375	115.3949661254883	109.1159439086914	-722.3701171875	250.4742279052734	-22.52614212036133	
636	6.350000000000001	-626.58447265625	1059.800048828125	205.0435028076172	-465.9198913574219	1042.90625	193.4641418457031	-535.1812133789062	1115.794677734375	187.4975128173828	-513.5883178710938	1311.97265625	407.6315307617188	-529.5654907226562	1260.420043945312	159.1362609863281	-497.484619140625	1528.085327148438	201.4349365234375	-502.0230407714844	1434.879760742188	358.5542602539062	-590.2329711914062	1397.603881835938	152.5527191162109	-408.1144104003906	1477.005126953125	177.0676879882812	-327.9598693847656	1477.982055664062	270.0920715332031	-263.0887451171875	1350.720703125	229.0293731689453	-254.0135803222656	1133.417358398438	215.3861846923828	-350.5508117675781	1130.513061523438	171.9296722412109	-309.6662292480469	887.771240234375	315.4449157714844	-288.8902282714844	867.3115234375	231.2099609375	-254.909423828125	1017.668518066406	226.4449462890625	-338.1477661132812	704.0946655273438	352.7763061523438	-291.1138916015625	778.3866577148438	266.956298828125	-301.3981323242188	791.7357788085938	336.1954040527344	-664.0531005859375	1527.325073242188	284.2102966308594	-744.391845703125	1471.358154296875	268.8215026855469	-809.809326171875	1220.471801757812	201.7982482910156	-719.8374633789062	1173.9033203125	202.5238342285156	-845.0390014648438	937.3110961914062	267.9828186035156	-904.7973022460938	953.8184204101562	200.4785003662109	-840.7818603515625	1150.524169921875	200.6552276611328	-872.5474853515625	751.9752197265625	235.6539459228516	-883.5316772460938	826.2054443359375	270.1064147949219	-927.3570556640625	848.839111328125	213.6347045898438	-420.9112243652344	1700.657836914062	278.7888793945312	-432.8378601074219	1657.056884765625	493.3760681152344	-351.1072998046875	1646.121704101562	437.8686218261719	-537.8360595703125	1713.225341796875	363.4144897460938	-352.4350891113281	936.1415405273438	293.3506164550781	-724.6923828125	959.5223999023438	331.2574157714844	-644.0778198242188	995.6405639648438	426.7171936035156	-409.9036865234375	997.0523681640625	404.7588806152344	-467.4049987792969	513.4691162109375	426.9511413574219	-411.07177734375	636.2508544921875	374.7035827636719	-564.1084594726562	36.70021438598633	324.6180725097656	-500.9965209960938	270.0320129394531	349.4374389648438	-606.9609375	38.73313903808594	549.928955078125	-625.93994140625	46.92655563354492	492.9128723144531	-530.2007446289062	40.5628776550293	445.7371520996094	-623.6487426757812	47.13103485107422	263.3742980957031	-742.8345947265625	525.8321533203125	430.5160217285156	-739.8175048828125	800.2716064453125	380.1185913085938	-782.3903198242188	211.9211883544922	35.55540084838867	-759.8977661132812	423.467529296875	351.5856628417969	-778.7001342773438	55.29779052734375	207.4251708984375	-737.621826171875	94.90240478515625	165.3848724365234	-829.2478637695312	113.8725280761719	138.0394134521484	-728.7696533203125	240.6213836669922	-0.6657959818840027	
637	6.36	-626.6943359375	1060.022094726562	213.9756774902344	-466.2409362792969	1043.027221679688	199.4831848144531	-535.5411376953125	1116.0830078125	194.6448822021484	-510.3233337402344	1312.531616210938	414.2517395019531	-530.104736328125	1260.694091796875	165.8762359619141	-497.4793090820312	1528.420532226562	207.5797729492188	-499.6387023925781	1435.318603515625	364.7870788574219	-590.8382568359375	1397.825805664062	160.1692352294922	-408.5084838867188	1477.374877929688	181.85595703125	-326.8603820800781	1478.516357421875	273.6010131835938	-262.5343933105469	1351.209350585938	231.6868591308594	-253.7354583740234	1133.76318359375	218.5606689453125	-350.9340515136719	1130.676513671875	176.5648345947266	-307.6580810546875	889.13037109375	321.5011901855469	-288.3777770996094	867.8781127929688	237.1360473632812	-254.4510192871094	1018.159118652344	230.3975677490234	-335.4252014160156	705.8827514648438	361.2628784179688	-289.9403381347656	779.30029296875	273.7932434082031	-298.9441833496094	793.3303833007812	343.0487365722656	-662.8048095703125	1527.577758789062	292.7538452148438	-743.324951171875	1471.697265625	278.4257507324219	-809.6596069335938	1221.068237304688	211.6087341308594	-719.62646484375	1174.49560546875	211.0528106689453	-843.8001708984375	937.9269409179688	278.504638671875	-904.4142456054688	954.163330078125	211.7004547119141	-840.6444091796875	1150.989501953125	210.7558135986328	-871.6373291015625	752.464599609375	247.3190155029297	-882.3776245117188	826.894775390625	281.61181640625	-926.7083740234375	849.1778564453125	225.5855560302734	-419.4771118164062	1701.054565429688	285.0862731933594	-429.8800048828125	1656.7177734375	499.60693359375	-348.5192260742188	1645.98828125	443.4338073730469	-535.7596435546875	1713.21142578125	370.5757446289062	-351.8835144042969	936.0897827148438	296.981201171875	-722.541748046875	960.2193603515625	342.2547912597656	-640.0150756835938	996.5367431640625	436.1604309082031	-406.3221435546875	997.2723999023438	409.7114562988281	-465.9097290039062	512.6815795898438	428.2096862792969	-409.9884033203125	635.8464965820312	376.6311645507812	-564.115234375	36.67176055908203	324.5843200683594	-500.5513305664062	269.8861999511719	349.7779541015625	-606.990966796875	38.68229293823242	549.96533203125	-625.9066772460938	46.93394470214844	492.9045715332031	-530.0956420898438	40.52899932861328	445.7283325195312	-623.5302124023438	47.31640625	263.3876953125	-737.510498046875	527.529052734375	445.8206481933594	-736.8009033203125	801.3898315429688	392.8484191894531	-788.593505859375	204.0531616210938	60.42387008666992	-757.185791015625	424.4437255859375	369.2182006835938	-785.4953002929688	55.01439666748047	238.8625183105469	-744.3462524414062	91.52991485595703	194.4581146240234	-835.930908203125	111.9219970703125	167.9169006347656	-734.914794921875	229.7475891113281	21.99437141418457	
